# xmcd CD database file
#
# Track frame offsets:
#	150
#	16093
#	31347
#	46916
#	64920
#	80889
#	91720
#	103829
#	121814
#	143193
#	157215
#	174525
#	197333
#	214699
#	229808
#	244964
#	257536
#	273130
#	290129
#	306340
#
# Disc length: 4298 seconds
#
# Revision: 0
# Processed by: cddbd v1.5.2PL0 Copyright (c) Steve Scherf et al.
# Submitted via: CDex 1.51
#
DISCID=1c10c814
DTITLE=Various Artist - 100 Hits Irish Party [CD2)
DYEAR=2010
DGENRE=Divers
TTITLE0=Ash -Girl From Mars
TTITLE1=Divine Comedy -Songs Of Love
TTITLE2=Corrs-Breathless
TTITLE3=D:Ream -Things Can Only Get Better
TTITLE4=Roisin Murphy -Ramalama(Bang Bang)
TTITLE5=Perez Prado& His Orchestra -Guaglione
TTITLE6=Gilbert O'Sullivan -Get Down
TTITLE7=Simple Kid -Truck On
TTITLE8=Damien Dempsey -Negative Vibes
TTITLE9=EoinGlackin-End Days Of The Computer Age
TTITLE10=That Petrol Emotion -V2
TTITLE11=Adventures -Broken Land
TTITLE12=David Kitt-You Know What I Want To Know
TTITLE13=Christy Moore -The Night Visiting Song
TTITLE14=Mary Coughlan-The Laziest Gal In Town
TTITLE15=Paddy O'Gorman -Dirty Old Town
TTITLE16=Brier -I'll Tell Me Ma - Mountain Dew - MursheenDurkin
TTITLE17=Paddy Reilly -Black Velvet Band
TTITLE18=Foster and Allen -Maggie
TTITLE19=Dolores Keane -Galway Bay
EXTD=YEAR: 2010
EXTT0=
EXTT1=
EXTT2=
EXTT3=
EXTT4=
EXTT5=
EXTT6=
EXTT7=
EXTT8=
EXTT9=
EXTT10=
EXTT11=
EXTT12=
EXTT13=
EXTT14=
EXTT15=
EXTT16=
EXTT17=
EXTT18=
EXTT19=
PLAYORDER=
